<svg xmlns="http://www.w3.org/2000/svg" viewBox="0 0 480.7 301.9"><defs><style>.cls-1{fill:#fff;}.cls-2{fill:#e03a3e;}.cls-3,.cls-4{fill:#0060a9;}.cls-4{stroke:#0060a9;stroke-width:0;}.cls-5{fill:none;stroke:#231f20;stroke-miterlimit:3.86;stroke-width:0.88px;}</style></defs><title>Asset 1</title><g id="Layer_2" data-name="Layer 2"><g id="Content"><rect class="cls-1" x="0.69" width="479.82" height="300.6" rx="27.59" ry="27.59"/><path class="cls-2" d="M480.4,193v81.25a27.59,27.59,0,0,1-27.59,27.59H28.17A27.59,27.59,0,0,1,.58,274.28V193Z"/><path class="cls-1" d="M87.34,235.44h11c5.55,0,7,3.47,7,5.8,0,3.25-1.83,4.16-2.77,4.63,2.77,1,3.5,3.25,3.5,5.48a6.57,6.57,0,0,1-2,4.66c-1.29,1.26-2.52,2-7.15,2H87.34Zm4.54,18.72h5.8c2.3,0,3.62-1,3.62-3.31,0-2-1.7-2.74-3.4-2.74h-6Zm0-9.86h5.55c1.86,0,3.34-.72,3.34-2.52s-1.32-2.43-3.47-2.43H91.88Z"/><path class="cls-1" d="M128.22,250.16c0,6-3.59,8.51-9.3,8.51-2.08,0-5.17-.5-7.18-2.74a8.25,8.25,0,0,1-1.76-5.48v-15h4.82v14.68c0,3.15,1.83,4.54,4,4.54,3.25,0,4.57-1.58,4.57-4.32v-14.9h4.82Z"/><path class="cls-1" d="M136.24,251.1c0,1.26.66,3.66,4.79,3.66,2.24,0,4.73-.53,4.73-2.93,0-1.76-1.7-2.24-4.1-2.8l-2.43-.57c-3.66-.85-7.18-1.67-7.18-6.65,0-2.52,1.35-7,8.7-7,6.93,0,8.79,4.54,8.82,7.31H145c-.13-1-.5-3.4-4.63-3.4-1.8,0-3.94.66-3.94,2.71,0,1.76,1.45,2.14,2.39,2.36l5.51,1.35c3.09.76,5.92,2,5.92,6.08,0,6.81-6.93,7.4-8.92,7.4-8.26,0-9.67-4.76-9.67-7.56Z"/><path class="cls-1" d="M158.25,258.06h-4.73V235.44h4.73Z"/><path class="cls-1" d="M176.46,235.44h4.41v22.62h-4.73l-9.23-16.13h-.06v16.13h-4.41V235.44h5l9,15.75h.06Z"/><path class="cls-1" d="M202.05,239.44H190v4.76h11v4H190v5.86h12.54v4H185.42V235.44h16.64Z"/><path class="cls-1" d="M209.82,251.1c0,1.26.66,3.66,4.79,3.66,2.24,0,4.73-.53,4.73-2.93,0-1.76-1.7-2.24-4.1-2.8l-2.43-.57c-3.66-.85-7.18-1.67-7.18-6.65,0-2.52,1.35-7,8.7-7,6.93,0,8.79,4.54,8.82,7.31h-4.54c-.13-1-.5-3.4-4.63-3.4-1.8,0-3.94.66-3.94,2.71,0,1.76,1.45,2.14,2.4,2.36l5.51,1.35c3.09.76,5.92,2,5.92,6.08,0,6.81-6.93,7.4-8.92,7.4-8.26,0-9.67-4.76-9.67-7.56Z"/><path class="cls-1" d="M230.85,251.1c0,1.26.66,3.66,4.79,3.66,2.24,0,4.73-.53,4.73-2.93,0-1.76-1.7-2.24-4.1-2.8l-2.43-.57c-3.65-.85-7.18-1.67-7.18-6.65,0-2.52,1.35-7,8.7-7,6.93,0,8.79,4.54,8.82,7.31h-4.54c-.13-1-.5-3.4-4.63-3.4-1.8,0-3.94.66-3.94,2.71,0,1.76,1.45,2.14,2.4,2.36l5.51,1.35c3.09.76,5.92,2,5.92,6.08,0,6.81-6.93,7.4-8.92,7.4-8.26,0-9.67-4.76-9.67-7.56Z"/><path class="cls-1" d="M279,258.06h-4.41V239.16h-.06l-4.22,18.91h-4.63l-4.13-18.91h-.06v18.91H257V235.44h6.9l4.1,17.83h.06l4-17.83H279Z"/><path class="cls-1" d="M300.16,239.44h-12v4.76h11v4h-11v5.86h12.54v4H283.52V235.44h16.64Z"/><path class="cls-1" d="M326.26,258.06h-4.41V239.16h-.06l-4.22,18.91h-4.63l-4.13-18.91h-.06v18.91h-4.41V235.44h6.9l4.1,17.83h.06l4-17.83h6.84Z"/><path class="cls-1" d="M330.8,235.44h11c5.54,0,7,3.47,7,5.8,0,3.25-1.83,4.16-2.77,4.63,2.77,1,3.5,3.25,3.5,5.48a6.57,6.57,0,0,1-2,4.66c-1.29,1.26-2.52,2-7.15,2H330.8Zm4.54,18.72h5.8c2.3,0,3.63-1,3.63-3.31,0-2-1.7-2.74-3.4-2.74h-6Zm0-9.86h5.55c1.86,0,3.34-.72,3.34-2.52s-1.32-2.43-3.47-2.43h-5.42Z"/><path class="cls-1" d="M370.2,239.44h-12v4.76h11v4h-11v5.86h12.54v4H353.57V235.44H370.2Z"/><path class="cls-1" d="M374.6,235.44H386c6,0,7.12,4.44,7.12,6.4a5.4,5.4,0,0,1-3.5,5.39c1.86.82,2.87,1.51,2.87,5.73,0,3.31,0,4.13,1,4.51v.6H388.3a15.14,15.14,0,0,1-.5-4.57c0-3.09-.19-4.29-3.69-4.29h-4.89v8.85H374.6Zm10.18,10c2.46,0,3.65-.85,3.65-3.09,0-1.2-.53-3-3.31-3h-5.89v6.05Z"/><path class="cls-2" d="M246.57,77.25l16.1-.6-13.51,44.51H278l13.51-44.51,15.73.6,6.41-21.14H253Z"/><path class="cls-2" d="M186.77,88.81c-4,20.88-26.17,33.38-50.41,33.38s-41.54-12.51-37.5-33.38c4-20.44,26.34-33.73,50.48-33.73S190.72,68.37,186.77,88.81Zm-58.89.34c-1.44,7.42,3.69,12.51,12.44,12.51s15.85-5.09,17.28-12.51c1.34-6.9-3.24-12.68-12.41-12.68S129.21,82.26,127.88,89.16Z"/><path class="cls-2" d="M177.79,116.24c8.24,3.71,19.4,6,29.42,6,17.18,0,36-7.68,39-23.2,2.14-11-5.68-16.39-17.48-18.63l-6.3-1.21c-2.13-.43-5.65-.78-5.18-3.19.52-2.67,4.36-3.45,6.89-3.45a29.37,29.37,0,0,1,15.81,4.92l11-16.65c-7-3.88-15-5.69-24.09-5.69-17.29,0-36.14,8.63-39.13,24.07-2,10.18,6.47,15.61,17.43,17.25l5.63.86c2.55.43,6.3.69,5.73,3.62s-5.28,3.88-8.13,3.88a28.81,28.81,0,0,1-16.87-6l-1.29-.95Z"/><path class="cls-2" d="M369.93,57.76a67.13,67.13,0,0,0-18.88-2.67c-23.3,0-44.47,15.18-48.14,34.16-3.59,18.55,11.33,33,34,33,5.16,0,16.07-.78,21.05-2.59l5.55-24.33c-5.36,3.71-11.08,6-17.72,6-8.64,0-15.06-5.52-13.67-12.68S341.64,76,350.28,76c6.54,0,11.75,3,15.7,6.56Z"/><path class="cls-2" d="M416.17,55.08c-24.14,0-46.53,13.28-50.48,33.73-4,20.88,13.25,33.38,37.5,33.38s46.37-12.51,50.41-33.38C457.56,68.37,440.31,55.08,416.17,55.08ZM412,76.48c9.17,0,13.74,5.78,12.41,12.68-1.43,7.42-8.53,12.51-17.28,12.51s-13.88-5.09-12.44-12.51C396.05,82.26,402.86,76.48,412,76.48Z"/><path class="cls-2" d="M106.3,43.16a86.21,86.21,0,0,0-23.55-3.23c-29.05,0-55.46,18.35-60,41.29-4.47,22.42,14.14,39.83,42.4,39.83,6.44,0,20-.94,26.26-3.13l6.92-29.4c-6.68,4.48-13.81,7.3-22.1,7.3-10.78,0-18.78-6.67-17.06-15.33S71,65.16,81.8,65.16c8.15,0,14.65,3.65,19.59,7.93Z"/><path class="cls-2" d="M435.84,118c.43-2.27,3-4.1,5.72-4.1s4.59,1.83,4.16,4.1-3,4.11-5.72,4.11S435.4,120.28,435.84,118Zm8.59,0c.35-1.83-1-3-3.08-3a4,4,0,0,0-4.22,3c-.35,1.83.92,3,3.07,3A4.06,4.06,0,0,0,444.42,118Zm-1.76,2.15h-1.28l-.8-1.82h-.83l-.35,1.82h-1.09l.82-4.3h2.5c1.1,0,1.7.31,1.5,1.32a1.43,1.43,0,0,1-1.38,1.17Zm-1.58-2.64c.54,0,1,0,1.1-.46s-.4-.38-.94-.38h-1.18l-.16.84Z"/><path class="cls-3" d="M169.14,129.8l1.1,17.45h.28a36,36,0,0,1,2.09-5.39l6-12.06h9.77l1.48,17.45h.28a37.37,37.37,0,0,1,1.86-5.16l5.87-12.29h13.26L193.23,159H182.11l-1-15.9h-.42a26.3,26.3,0,0,1-1.49,4.42L173.5,159H162.66l-6.73-29.23Z"/><path class="cls-3" d="M210.23,129.8h12.29l-1.87,9.85h7.82l1.87-9.85h12.29L237.07,159H224.78l1.93-10.16h-7.82L217,159H204.68Z"/><path class="cls-3" d="M278.6,144.49c-1.78,9.38-11.55,15-22.26,15s-18.34-5.62-16.55-15c1.75-9.19,11.63-15.16,22.29-15.16S280.35,135.3,278.6,144.49Zm-26,.15c-.63,3.33,1.63,5.62,5.49,5.62s7-2.29,7.63-5.62c.59-3.1-1.43-5.7-5.48-5.7S253.19,141.55,252.6,144.65Z"/><path class="cls-3" d="M281.39,129.8h12.75l-3.77,19.85h10.7L299.29,159H275.84Z"/><path class="cls-3" d="M331.24,148.56l.57.43a12.58,12.58,0,0,0,7.45,2.67c1.26,0,3.34-.43,3.59-1.74s-1.4-1.43-2.53-1.63l-2.48-.39c-4.84-.74-8.56-3.18-7.7-7.75,1.32-6.94,9.64-10.82,17.27-10.82A21.27,21.27,0,0,1,358,131.89l-4.87,7.48a12.81,12.81,0,0,0-7-2.21c-1.12,0-2.81.35-3,1.55s1.35,1.24,2.29,1.43l2.78.54c5.21,1,8.66,3.41,7.72,8.38-1.33,7-9.62,10.43-17.2,10.43a33,33,0,0,1-13-2.68Z"/><path class="cls-3" d="M375,148.45l-.51-5.16a34.07,34.07,0,0,1-.12-3.76h-.47l-4,8.92ZM363.94,159h-13.5L368.2,129.8h14.1l7,29.23h-13.5l-.47-3.64h-9.63Z"/><path class="cls-3" d="M393.75,129.8H406.5l-3.77,19.85h10.7L411.65,159H388.19Z"/><path class="cls-3" d="M419.57,129.8h23.59l-1.52,8H430.9l-.53,2.79h9.82l-1.45,7.6h-9.82l-.54,2.87H439.5L438,159H414Z"/><polygon class="cls-4" points="24.73 159.08 159.92 159.08 159.91 159.03 159.8 159.03 158.09 151.6 24.73 151.6 24.73 159.08"/><polygon class="cls-4" points="24.73 148.46 157.37 148.46 155.64 140.97 24.73 140.97 24.73 148.46"/><polygon class="cls-4" points="24.73 137.78 154.87 137.78 154.28 135.06 153.08 129.85 24.73 129.85 24.73 137.78"/><path class="cls-3" d="M307.22,129.8h23.59l-1.52,8H318.54l-.53,2.79h9.82l-1.44,7.6h-9.82L316,151h11.12l-1.52,8h-24Z"/><rect class="cls-3" x="0.58" y="185.16" width="478.84" height="7.88"/><rect class="cls-5" x="0.44" y="0.86" width="479.82" height="300.6" rx="27.59" ry="27.59"/></g></g></svg>