<svg xmlns="http://www.w3.org/2000/svg" viewBox="0 0 480.18 300.96"><defs><style>.cls-1,.cls-5{fill:#fff;}.cls-1,.cls-3{stroke:#231f20;}.cls-2,.cls-8{fill:#0033a0;}.cls-3{fill:none;stroke-width:0.5px;}.cls-4{fill:#cf0a2c;}.cls-6{fill:#fdbc11;}.cls-7{fill:#f7a800;}.cls-8{stroke:#0060a8;stroke-width:0;}</style></defs><title>Asset 2</title><g id="Layer_2" data-name="Layer 2"><g id="Content"><rect class="cls-1" x="0.88" y="0.5" width="478.81" height="299.96" rx="27.53" ry="27.53"/><rect class="cls-2" y="185.42" width="480.07" height="7.87"/><rect class="cls-3" x="0.88" y="0.5" width="478.81" height="299.96" rx="27.53" ry="27.53"/><path class="cls-4" d="M108.08,248.66h9.44v12.18h-3.15l-.47-2.83a8.32,8.32,0,0,1-7.05,3.43c-5.45,0-10.39-3.9-10.39-11.83,0-6.17,3.43-12,11-12,6.92,0,9.66,4.5,9.91,7.62h-4.72c0-.88-1.61-3.72-4.94-3.72s-6.48,2.33-6.48,8.12c0,6.17,3.37,7.77,6.58,7.77,1,0,4.5-.41,5.48-5h-5.26Z"/><path class="cls-4" d="M129.13,237.64c3,0,10.86,1.29,10.86,11.9s-7.87,11.9-10.86,11.9-10.86-1.29-10.86-11.9S126.14,237.64,129.13,237.64Z"/><polygon class="cls-4" points="145.81 256.75 157.05 256.75 157.05 260.84 141.09 260.84 141.09 238.24 145.81 238.24 145.81 256.75"/><path class="cls-4" d="M158.38,238.24h10c7.62,0,9.19,6.48,9.19,10.76,0,4.85-1.92,11.83-9.38,11.83h-9.79Z"/><path class="cls-4" d="M186.75,253.89c0,1.26.66,3.65,4.78,3.65,2.24,0,4.72-.53,4.72-2.93,0-1.76-1.7-2.24-4.09-2.8l-2.42-.57c-3.65-.85-7.18-1.67-7.18-6.64,0-2.52,1.35-7,8.69-7,6.92,0,8.78,4.53,8.81,7.3h-4.53c-.13-1-.5-3.4-4.63-3.4-1.79,0-3.93.66-3.93,2.71,0,1.76,1.45,2.14,2.39,2.36l5.51,1.35c3.08.76,5.92,2,5.92,6.08,0,6.8-6.92,7.4-8.91,7.4-8.25,0-9.66-4.75-9.66-7.55Z"/><polygon class="cls-4" points="302.37 242.12 290.37 242.12 290.37 246.87 301.39 246.87 301.39 250.87 290.37 250.87 290.37 256.72 302.9 256.72 302.9 260.72 285.75 260.72 285.75 238.12 302.37 238.12 302.37 242.12"/><polygon class="cls-4" points="326 260.84 321.59 260.84 321.59 241.96 321.53 241.96 317.31 260.84 312.68 260.84 308.56 241.96 308.5 241.96 308.5 260.84 304.09 260.84 304.09 238.24 310.98 238.24 315.07 256.06 315.14 256.06 319.17 238.24 326 238.24 326 260.84"/><path class="cls-4" d="M327.85,238.24h11c5.54,0,7,3.46,7,5.79,0,3.24-1.83,4.16-2.77,4.63,2.77,1,3.49,3.24,3.49,5.48a6.56,6.56,0,0,1-2,4.66c-1.29,1.26-2.52,2-7.14,2h-9.57Z"/><polygon class="cls-4" points="364.51 242.24 352.52 242.24 352.52 246.99 363.54 246.99 363.54 250.99 352.52 250.99 352.52 256.85 365.05 256.85 365.05 260.84 347.89 260.84 347.89 238.24 364.51 238.24 364.51 242.24"/><path class="cls-4" d="M366.21,238.24h11.43c6,0,7.11,4.44,7.11,6.39a5.39,5.39,0,0,1-3.49,5.38c1.86.82,2.86,1.51,2.86,5.73,0,3.3,0,4.12,1,4.5v.6H379.9a15,15,0,0,1-.51-4.56c0-3.09-.19-4.28-3.68-4.28h-4.88v8.84h-4.63Z"/><path class="cls-5" d="M129.13,257.44c2.55,0,6.14-1.57,6.14-7.9s-3.59-7.9-6.14-7.9-6.14,1.57-6.14,7.9S126.58,257.44,129.13,257.44Z"/><path class="cls-5" d="M163,256.94h4.6c3.84,0,5.13-3.87,5.13-7.58,0-6.67-3.18-7.21-5.19-7.21H163Z"/><path class="cls-5" d="M332.38,256.94h5.79c2.3,0,3.62-1,3.62-3.3,0-2-1.7-2.74-3.4-2.74h-6Z"/><path class="cls-5" d="M332.38,247.09h5.54c1.86,0,3.34-.73,3.34-2.52s-1.32-2.42-3.46-2.42h-5.41Z"/><path class="cls-5" d="M376.38,248.19c2.45,0,3.65-.85,3.65-3.08,0-1.2-.53-3-3.3-3h-5.89v6Z"/><polygon class="cls-6" points="225.44 243.5 222.55 252.44 228.31 252.44 225.51 243.5 225.44 243.5"/><path class="cls-6" d="M247.06,242.31h-5.89v6h5.54c2.45,0,3.65-.85,3.65-3.09C250.37,244.07,249.83,242.31,247.06,242.31Z"/><path class="cls-7" d="M262.45,261V238.4h6.89l.68,2.94,30.81-23.14H254.14l-13.78-43.66-14.1,43.66H179.73l27.13,20.2h11.86v4h-6.49l5.44,4-14.75,44.8,37.45-27.6,37.45,27.6-11-33.64V261Zm-31.37,0-1.45-4.66h-8.34L219.72,261h-5l8.06-22.6h5.45l8,22.6Zm24.39,0h-5.22a15.06,15.06,0,0,1-.5-4.56c0-3.08-.19-4.28-3.68-4.28h-4.88V261h-4.63V238.4H248c6,0,7.11,4.44,7.11,6.39a5.39,5.39,0,0,1-3.49,5.38c1.86.82,2.86,1.51,2.86,5.73,0,3.3,0,4.12,1,4.5Z"/><polygon class="cls-6" points="266.85 242.12 266.85 243.72 267.21 243.45 266.92 242.12 266.85 242.12"/><polygon class="cls-4" points="211.88 261 207.16 261 207.16 242.4 200.33 242.4 200.33 238.4 218.71 238.4 218.71 242.4 211.88 242.4 211.88 261"/><polygon class="cls-4" points="284.36 261 279.95 261 279.95 242.12 279.88 242.12 275.67 261 271.04 261 266.92 242.12 266.85 242.12 266.85 261 262.45 261 262.45 238.4 269.34 238.4 273.43 256.22 273.5 256.22 277.52 238.4 284.36 238.4 284.36 261"/><path class="cls-4" d="M228.25,238.4H222.8L214.74,261h5l1.57-4.66h8.34l1.45,4.66h5.13Zm-5.7,14,2.89-8.94h.06l2.8,8.94Z"/><path class="cls-4" d="M254.46,255.9c0-4.22-1-4.91-2.86-5.73a5.39,5.39,0,0,0,3.49-5.38c0-2-1.1-6.39-7.11-6.39H236.55V261h4.63v-8.84h4.88c3.49,0,3.68,1.2,3.68,4.28a15.06,15.06,0,0,0,.5,4.56h5.22v-.6C254.46,260,254.46,259.21,254.46,255.9Zm-7.74-7.55h-5.54v-6h5.89c2.77,0,3.31,1.76,3.31,3C250.37,247.5,249.17,248.35,246.72,248.35Z"/><path class="cls-4" d="M250.46,79.39l16.07-.6-13.48,44.42h28.82l13.48-44.42,15.7.6,6.4-21.09H256.87Z"/><path class="cls-4" d="M190.79,90.93c-4,20.83-26.11,33.31-50.31,33.31S99,111.76,103.06,90.93c3.95-20.4,26.29-33.66,50.38-33.66S194.73,70.53,190.79,90.93ZM132,91.27c-1.43,7.4,3.69,12.48,12.42,12.48s15.81-5.08,17.25-12.48c1.33-6.89-3.23-12.65-12.38-12.65S133.36,84.39,132,91.27Z"/><path class="cls-4" d="M181.83,118.3c8.23,3.7,19.36,5.94,29.36,5.94,17.15,0,35.88-7.66,38.88-23.16,2.13-11-5.67-16.35-17.44-18.59l-6.29-1.2c-2.13-.43-5.64-.77-5.17-3.18.52-2.67,4.35-3.44,6.87-3.44a29.31,29.31,0,0,1,15.78,4.91l11-16.61c-7-3.87-15-5.68-24-5.68-17.25,0-36.06,8.61-39,24-2,10.16,6.45,15.58,17.39,17.22l5.62.86c2.55.43,6.28.69,5.72,3.62s-5.27,3.87-8.11,3.87a28.75,28.75,0,0,1-16.84-5.94l-1.29-.95Z"/><path class="cls-4" d="M373.56,59.94a66.92,66.92,0,0,0-18.84-2.67c-23.25,0-44.38,15.15-48,34.09-3.58,18.51,11.31,32.88,33.93,32.88,5.15,0,16-.77,21-2.58l5.54-24.27c-5.34,3.7-11.05,6-17.68,6-8.63,0-15-5.51-13.65-12.65S345.33,78.1,354,78.1c6.52,0,11.72,3,15.67,6.54Z"/><path class="cls-4" d="M419.71,57.27c-24.09,0-46.43,13.26-50.37,33.66-4,20.83,13.22,33.31,37.42,33.31S453,111.76,457.06,90.93C461,70.53,443.79,57.27,419.71,57.27Zm-4.13,21.35c9.15,0,13.71,5.77,12.38,12.65-1.43,7.4-8.52,12.48-17.25,12.48s-13.85-5.08-12.42-12.48C399.63,84.39,406.43,78.62,415.58,78.62Z"/><path class="cls-4" d="M110.49,45.37A86,86,0,0,0,87,42.15c-29,0-55.34,18.31-59.91,41.2C22.62,105.72,41.19,123.1,69.4,123.1c6.43,0,20-.94,26.21-3.12l6.91-29.34c-6.67,4.47-13.79,7.28-22.05,7.28-10.76,0-18.74-6.66-17-15.29S75.28,67.33,86,67.33c8.13,0,14.62,3.64,19.54,7.91Z"/><path class="cls-4" d="M439.33,120.06c.43-2.27,3-4.09,5.71-4.09s4.58,1.83,4.15,4.09-3,4.11-5.71,4.11S438.89,122.33,439.33,120.06Zm8.57,0c.35-1.83-1-3-3.07-3a4,4,0,0,0-4.22,3c-.35,1.83.93,3,3.07,3A4,4,0,0,0,447.9,120.06Zm-1.75,2.14h-1.27l-.8-1.82h-.83l-.34,1.82h-1.08l.82-4.29h2.5c1.1,0,1.69.3,1.5,1.31a1.43,1.43,0,0,1-1.38,1.17Zm-1.58-2.64c.54,0,1,0,1.1-.46s-.4-.38-.94-.38h-1.17l-.16.84Z"/><path class="cls-2" d="M173.2,131.83l1.1,17.41h.28a35.85,35.85,0,0,1,2.09-5.38l6-12h9.75l1.47,17.41h.28a37.31,37.31,0,0,1,1.86-5.15l5.86-12.26h13.24L197.24,161h-11.1l-1-15.86h-.42a26.26,26.26,0,0,1-1.49,4.41L177.55,161H166.73L160,131.83Z"/><path class="cls-2" d="M214.2,131.83h12.26l-1.87,9.83h7.8l1.87-9.83h12.26L241,161H228.72l1.93-10.14h-7.8L220.92,161H208.66Z"/><path class="cls-2" d="M282.43,146.49c-1.78,9.36-11.53,15-22.21,15s-18.3-5.61-16.52-15c1.74-9.17,11.61-15.13,22.24-15.13S284.17,137.32,282.43,146.49Zm-25.94.15c-.63,3.33,1.63,5.61,5.48,5.61s7-2.28,7.61-5.61c.59-3.1-1.42-5.69-5.47-5.69S257.07,143.55,256.48,146.65Z"/><path class="cls-2" d="M285.21,131.83h12.72l-3.77,19.81h10.68L303.07,161H279.67Z"/><path class="cls-2" d="M335,150.55l.57.43a12.54,12.54,0,0,0,7.43,2.67c1.25,0,3.33-.43,3.58-1.74s-1.4-1.43-2.53-1.63l-2.48-.39c-4.83-.74-8.55-3.17-7.68-7.74,1.32-6.93,9.62-10.79,17.24-10.79a21.23,21.23,0,0,1,10.61,2.55l-4.86,7.47a12.77,12.77,0,0,0-7-2.2c-1.11,0-2.81.35-3,1.55s1.34,1.24,2.28,1.43l2.77.54c5.2,1,8.64,3.41,7.7,8.36-1.32,7-9.59,10.41-17.16,10.41a33,33,0,0,1-13-2.67Z"/><path class="cls-2" d="M378.67,150.44l-.51-5.15a33.58,33.58,0,0,1-.12-3.75h-.46l-4,8.9ZM367.59,161H354.12l17.71-29.17H385.9L392.85,161H379.38l-.47-3.64H369.3Z"/><path class="cls-2" d="M397.33,131.83h12.72l-3.76,19.81H417L415.19,161h-23.4Z"/><path class="cls-2" d="M423.1,131.83h23.55l-1.52,8H434.4l-.53,2.79h9.8l-1.44,7.58h-9.8l-.54,2.86H443l-1.52,8H417.55Z"/><polygon class="cls-8" points="29.1 161.05 164 161.05 163.99 161 163.88 161 162.17 153.58 29.1 153.58 29.1 161.05"/><polygon class="cls-8" points="29.1 150.45 161.45 150.45 159.73 142.98 29.1 142.98 29.1 150.45"/><polygon class="cls-8" points="29.1 139.79 158.95 139.79 158.37 137.07 157.17 131.89 29.1 131.89 29.1 139.79"/><path class="cls-2" d="M311,131.83h23.54l-1.52,8H322.28l-.53,2.79h9.8l-1.44,7.58h-9.8l-.54,2.86h11.1l-1.52,8H305.44Z"/></g></g></svg>