<?xml version="1.0" encoding="utf-8"?>
<!-- Generator: Adobe Illustrator 19.2.0, SVG Export Plug-In . SVG Version: 6.00 Build 0)  -->
<svg version="1.1" id="logo" xmlns="http://www.w3.org/2000/svg" xmlns:xlink="http://www.w3.org/1999/xlink" x="0px" y="0px"
	 viewBox="0 0 271 80" style="enable-background:new 0 0 271 80;" xml:space="preserve">
<style type="text/css">
	.st0{fill:#FFFFFF;}
	.st1{fill:#0033A0;}
	.st2{fill:#CF0A2C;}
</style>
<path id="outline" class="st0" d="M266.9,18.2c-4.6-5.6-12.8-8.8-22.4-8.8s-19.3,3.5-25.7,9.1l1-6.5l-2.7-0.8
	c-4.1-1.2-8.3-1.8-12.5-1.8c-7.1,0-14.1,2.1-20.1,6l1.6-5.4h-44l-0.5,1.7c-4.2-1.6-8.6-2.5-13.1-2.4c-9.1,0-18.9,3.5-24,10.3
	l-1.1-1.5C98.8,12.5,90.6,9.3,81,9.3S62.4,12.7,56.1,18l2.4-14.9l-2.8-0.8c-5-1.4-10.1-2.2-15.3-2.2C21.1,0.1,3.6,12.4,0.5,28
	c-1.4,6.4,0.2,13.1,4.3,18.2c3.9,4.5,9.1,7.6,14.9,8.9h-19v24.5H98l0,0h11.7l1.6-2.6l-0.3,2.6h26.5l0.4-2c2.7,1.6,5.7,2.4,8.8,2.3
	c2.9,0,5.8-0.6,8.5-1.8l-0.3,1.5H192v-0.4c1.7,0.4,3.5,0.6,5.3,0.6l3.2-0.3h14.2l1-2.2h0.9l0.3,2.2h43.7l2.2-11.4H262l0.3-1.6h0.6
	l2.1-11.4h-1.2c1-0.9,1.6-2,1.9-3.3c0.3-1.5-0.1-3.1-1.1-4.3l-0.9-0.8c3.5-3.5,5.9-7.9,6.9-12.7C271.8,28.5,270.5,22.7,266.9,18.2
	L266.9,18.2L266.9,18.2z M241.6,67.2h-1.3l2-10.6l1.4-0.2L241.6,67.2L241.6,67.2L241.6,67.2z M210.4,32.7c-0.1,0.7-0.2,1.4-0.3,2.1
	c-2.5,1.8-5.6,2.9-8.7,2.9c-1.7,0.1-3.4-0.5-4.6-1.7c-0.5-0.6-0.7-1.4-0.5-2.1c0.5-2.7,4.2-5.1,7.9-5.1c2.4,0,4.8,0.9,6.6,2.5
	L210.4,32.7L210.4,32.7L210.4,32.7z M213.4,55.1l-1.4,2.4l-1.2-0.7c-0.8-0.4-1.6-0.8-2.5-1.1l1.8-0.5l1.7-0.6l1.7-7.2l0.7,0.9
	c2.8,3.2,6.4,5.5,10.4,6.8h-11L213.4,55.1z M228,56.1l-0.6,3l-0.8-3.3L228,56.1L228,56.1L228,56.1z M242,29c1.4-0.1,2.8,0.3,3.9,1.3
	c0.5,0.7,0.7,1.6,0.5,2.5c-0.6,2.9-3.6,5-7.4,5c-1.5,0.1-2.9-0.3-4-1.3c-0.5-0.7-0.6-1.6-0.4-2.4C235.1,31.6,237.8,29,242,29
	C242,29,242,29,242,29z M159.1,57.3l-1.7-0.9h1.8L159.1,57.3L159.1,57.3L159.1,57.3z M149,67.3c-0.3,0.3-0.7,0.4-1.1,0.4
	C148.2,67.4,148.6,67.3,149,67.3L149,67.3z M146.1,29.3l-2.2,7.2c-0.1-1.9-0.7-3.7-1.8-5.2c-0.4-0.7-0.9-1.3-1.5-1.8L146.1,29.3
	L146.1,29.3z M83,32.9c-0.6,2.9-3.6,5-7.4,5c-1.5,0.1-2.9-0.3-4-1.3c-0.5-0.7-0.6-1.6-0.4-2.4c0.5-2.5,3.2-5.1,7.4-5.1
	c1.4-0.1,2.8,0.3,3.9,1.3C83,31.1,83.2,32,83,32.9L83,32.9z M108.3,56.3L108.3,56.3L108.3,56.3C108.2,56.3,108.3,56.3,108.3,56.3z
	 M140.8,46.7l-2.5,8.4h-9.8C133.5,53.4,138,50.7,140.8,46.7L140.8,46.7z M141.9,56.4h0.5l-0.6,0.3L141.9,56.4L141.9,56.4L141.9,56.4
	z M36.4,34.3c-2.8,0-5.2-0.9-6.5-2.5c-0.7-0.8-1-1.9-0.8-3c0.7-3.7,5.6-6.8,10.7-6.8c3.6,0.1,7.1,1.5,9.7,4
	c-0.8,1.5-1.4,3.1-1.9,4.8C44.4,33.1,40.5,34.3,36.4,34.3L36.4,34.3L36.4,34.3z M94.1,51.7l3.2,1.4c1.9,0.8,3.8,1.5,5.8,2h-6
	l-0.6,1.3v-1.3H86.1C88.9,54.2,91.5,53.1,94.1,51.7L94.1,51.7L94.1,51.7z M171.7,67.3l2.3-12.2h-11.3l7.9-25.9h2.4
	c-0.5,1.2-0.8,2.4-1.1,3.6c-1.2,5.5,0.2,11.3,3.8,15.7c2.5,3,5.7,5.2,9.4,6.5h-9.9L173,67.3H171.7z M46.8,54.2l1.7-0.6l1.5-6.3
	l0.7,1c2.8,3.2,6.4,5.5,10.4,6.8H43.2L46.8,54.2L46.8,54.2z M249.4,55.1l4.2-1.6c0.2,0.5,0.5,0.9,0.8,1.3l0.2,0.2L249.4,55.1
	L249.4,55.1z"/>
<polygon id="E" class="st1" points="246.6,58.4 261,58.4 260.1,63.3 253.5,63.3 253.2,65 259.2,65 258.3,69.7 252.3,69.7 
	251.9,71.4 258.8,71.4 257.8,76.3 243.2,76.3 246.6,58.4 "/>
<polygon id="L" class="st1" points="230.7,58.4 238.6,58.4 236.2,70.6 242.8,70.6 241.7,76.3 227.3,76.3 230.7,58.4 "/>
<path id="A" class="st1" d="M219.3,69.8l-0.3-3.1c-0.1-0.8-0.1-1.5-0.1-2.3h-0.3l-2.5,5.5L219.3,69.8L219.3,69.8z M212.5,76.3h-8.3
	l10.9-17.9h8.6l4.3,17.9h-8.3l-0.3-2.2h-5.9L212.5,76.3L212.5,76.3L212.5,76.3z"/>
<path id="S" class="st1" d="M192.5,69.9l0.3,0.3c1.3,1,2.9,1.6,4.6,1.6c0.8,0,2-0.3,2.2-1.1c0.2-0.8-0.9-0.9-1.5-1l-1.5-0.2
	c-3-0.5-5.2-1.9-4.7-4.7c0.5-2.8,5.9-6.6,10.6-6.6c2.3,0,4.5,0.5,6.5,1.6l-3,4.6c-1.3-0.9-2.8-1.4-4.3-1.4c-0.7,0-1.7,0.2-1.9,0.9
	c-0.2,0.7,0.8,0.8,1.4,0.9l1.7,0.3c3.2,0.6,5.3,2.1,4.7,5.1c-0.6,3-5.9,6.4-10.5,6.4c-2.7,0-5.4-0.5-7.9-1.6L192.5,69.9L192.5,69.9
	L192.5,69.9z"/>
<polygon id="E-2" class="st1" points="177.8,58.4 192.2,58.4 191.3,63.3 184.7,63.3 184.4,65 190.4,65 189.5,69.7 183.5,69.7 
	183.2,71.4 190,71.4 189.1,76.3 174.4,76.3 177.8,58.4 "/>
<polygon id="L-2" class="st1" points="162,58.4 169.8,58.4 167.5,70.6 174,70.6 172.9,76.3 158.6,76.3 162,58.4 "/>
<path id="O" class="st1" d="M160.3,67.4c-1.1,5.7-7.1,9.2-13.6,9.2c-6.5,0-11.2-3.4-10.1-9.2s7.1-9.3,13.6-9.3
	C156.7,58.1,161.4,61.8,160.3,67.4L160.3,67.4z M144.4,67.5c-0.4,2,1,3.4,3.4,3.4c2.2,0.2,4.2-1.3,4.7-3.4c0.4-1.9-0.9-3.5-3.4-3.5
	C146.9,63.9,144.9,65.4,144.4,67.5L144.4,67.5z"/>
<polygon id="H" class="st1" points="118.4,58.4 126,58.4 124.8,64.4 129.6,64.4 130.7,58.4 138.3,58.4 134.9,76.3 127.3,76.3 
	128.5,70.1 123.7,70.1 122.6,76.3 115,76.3 118.4,58.4 "/>
<path id="W" class="st1" d="M93.3,58.4L94,69.1h0.2c0.3-1.1,0.8-2.2,1.3-3.3l3.7-7.4h6l0.8,10.7h0.2c0.3-1.1,0.7-2.2,1.1-3.2
	l3.6-7.5h8.1l-11,17.9h-6.8l-0.6-9.7h-0.3c-0.2,0.9-0.5,1.8-0.9,2.7l-3.5,7h-6.6l-4.1-17.9C85.2,58.4,93.3,58.4,93.3,58.4z"/>
<polygon id="line-bot" class="st1" points="4.9,76.3 87.6,76.3 87.6,76.3 87.6,76.3 86.5,71.8 4.9,71.8 4.9,76.3 "/>
<polygon id="line-mid" class="st1" points="4.9,69.8 86.1,69.8 85,65.3 4.9,65.3 4.9,69.8 "/>
<polygon id="line-top" class="st1" points="4.9,63.3 84.5,63.3 84.2,61.6 83.5,58.4 4.9,58.4 4.9,63.3 "/>
<path id="registered-mark" class="st2" d="M256.5,51.2c0.5-1.5,1.9-2.6,3.5-2.5c1.7,0,2.8,1.1,2.5,2.5c-0.5,1.5-1.9,2.6-3.5,2.5
	C257.3,53.7,256.2,52.6,256.5,51.2L256.5,51.2z M261.8,51.2c0.2-1.1-0.6-1.9-1.9-1.9c-1.2-0.1-2.3,0.7-2.6,1.9
	c-0.2,1.1,0.6,1.9,1.9,1.9C260.4,53.2,261.5,52.4,261.8,51.2L261.8,51.2z M260.7,52.5h-0.8l-0.5-1.1h-0.5l-0.2,1.1H258l0.5-2.6h1.5
	c0.7,0,1,0.2,0.9,0.8c-0.1,0.4-0.4,0.7-0.8,0.7L260.7,52.5L260.7,52.5L260.7,52.5z M259.7,50.9c0.3,0,0.6,0,0.7-0.3
	s-0.2-0.2-0.6-0.2h-0.7v0.5h0.7H259.7z"/>
<path id="O-2" class="st2" d="M244.5,12.7c-14.8,0-28.5,8.1-30.9,20.6s8.1,20.4,23,20.4S265,46,267.5,33.3
	C270,20.6,259.4,12.7,244.5,12.7L244.5,12.7L244.5,12.7z M242,25.8c5.6,0,8.4,3.5,7.6,7.8s-5.2,7.7-10.6,7.7c-5.4,0-8.5-3.1-7.6-7.7
	S236.4,25.8,242,25.8L242,25.8z"/>
<path id="C" class="st2" d="M216.2,14.3c-3.8-1.1-7.7-1.6-11.6-1.6c-14.3,0-27.2,9.3-29.5,20.9c-2.3,11.6,6.9,20.2,20.8,20.2
	c3.2,0,9.8-0.5,12.9-1.6l3.4-14.9c-3.1,2.3-6.9,3.6-10.8,3.7c-5.3,0-9.2-3.4-8.4-7.8s5.8-7.8,11.1-7.8c3.6,0.1,7,1.5,9.6,4
	L216.2,14.3L216.2,14.3L216.2,14.3z"/>
<polygon id="T" class="st2" points="140.7,26.3 150.5,25.9 142.3,53.1 159.9,53.1 168.2,25.9 177.8,26.3 181.8,13.3 144.6,13.3 
	140.7,26.3 "/>
<path id="S-2" class="st2" d="M98.6,50.1c5.7,2.4,11.8,3.6,18,3.6c10.5,0,22-4.7,23.8-14.2c1.3-6.8-3.5-10-10.7-11.4l-3.9-0.7
	c-1.3-0.3-3.5-0.5-3.2-2s2.7-2.1,4.2-2.1c3.5,0,6.8,1.1,9.7,3l6.7-10.2c-4.5-2.4-9.6-3.6-14.7-3.5c-10.6,0-22.1,5.3-23.9,14.7
	c-1.2,6.2,4,9.6,10.7,10.6l3.4,0.5c1.6,0.3,3.9,0.4,3.5,2.2c-0.4,1.8-3.2,2.4-5,2.4c-3.7-0.1-7.2-1.3-10.2-3.5l-0.8-0.6L98.6,50.1
	L98.6,50.1z"/>
<path id="O-3" class="st2" d="M104.1,33.3c-2.5,12.8-16,20.4-30.9,20.4s-25.4-7.6-22.9-20.4s16.1-20.6,30.9-20.6
	S106.5,20.8,104.1,33.3L104.1,33.3z M68.1,33.5c-0.9,4.5,2.3,7.7,7.6,7.7s9.7-3.1,10.6-7.7s-2-7.8-7.6-7.8
	C73.1,25.7,68.9,29.3,68.1,33.5L68.1,33.5L68.1,33.5z"/>
<path id="C-2" class="st2" d="M54.8,5.4c-4.7-1.3-9.5-2-14.4-2C22.6,3.4,6.5,14.6,3.7,28.7s8.7,24.4,26,24.4
	c3.9,0,12.3-0.6,16.1-1.9l4.2-18c-3.9,2.8-8.6,4.4-13.5,4.5c-6.6,0-11.5-4.1-10.4-9.4s7.3-9.4,13.9-9.4c4.5,0.1,8.7,1.8,12,4.9
	l3-18.3l0,0L54.8,5.4z"/>
</svg>
